<svg xmlns="http://www.w3.org/2000/svg" xmlns:xlink="http://www.w3.org/1999/xlink" version="1.1" x="0px" y="0px" viewBox="0 0 105 131.25" enable-background="new 0 0 105 105" xml:space="preserve"><g><path d="M23.782,30.874c2.199-0.652,3.318-3.396,2.625-6.156c-0.807-2.656-6.564-11.698-6.564-11.698s-2.369,10.733-1.479,13.728   C19.106,29.696,21.591,31.526,23.782,30.874z"/><path d="M36.157,35.456c0.791-2.578,0.746-12.557,0.746-12.557s-7.599,6.545-8.533,9.238c-0.998,2.605,0.045,5.572,2.238,6.453   C32.797,39.479,35.247,37.995,36.157,35.456z"/><path d="M41.765,50.602c0.506-2.621-0.543-12.488-0.543-12.488s-6.894,7.273-7.544,10.051c-0.722,2.689,0.638,5.528,2.909,6.155   C38.864,54.95,41.124,53.208,41.765,50.602z"/><path d="M16.573,42.368c2.434,1.707,5.238,1.18,6.32-0.986c1.072-2.17,0.09-5.154-2.225-6.861   c-2.323-1.598-12.357-4.221-12.357-4.221S14.044,40.77,16.573,42.368z"/><path d="M29.019,55.829c0.826-2.279-0.474-5.141-2.957-6.604c-2.478-1.348-12.732-2.943-12.732-2.943s6.8,9.881,9.514,11.213   C25.455,58.946,28.194,58.103,29.019,55.829z"/><path d="M56.605,71.597c-0.227-2.598-3.438-11.607-3.438-11.607s-5.027,8.613-4.934,11.467c-0.027,2.766,2.037,5.141,4.379,5.111   C54.977,76.524,56.636,74.235,56.605,71.597z"/><path d="M66.607,14.408c1.555,0.62,3.422-0.427,4.304-2.284c0.731-1.849,1.806-9.624,1.806-9.624s-6.379,4.886-7.264,7.054   C64.488,11.592,65.066,13.795,66.607,14.408z"/><path d="M68.656,17.194c-1.719,1.041-2.451,3.227-1.53,4.686c0.894,1.455,2.978,1.631,4.592,0.599   c1.538-1.14,5.944-6.555,5.944-6.555S70.416,16.05,68.656,17.194z"/><path d="M61.41,20.165c1.557-0.834,2.332-3.001,1.767-5.054c-0.612-1.955-5.024-8.168-5.024-8.168s-1.666,8.913-0.85,11.023   C57.962,20.092,59.831,20.984,61.41,20.165z"/><path d="M59.919,26.264c-0.946-1.835-6.233-7.333-6.233-7.333s-0.281,9.163,0.885,11.114c0.996,2,2.986,2.572,4.412,1.502   C60.385,30.469,60.79,28.204,59.919,26.264z"/><path d="M70.048,51.903c0.812-1.754,2.167-8.498,2.167-8.498s-6.361,3.449-7.357,5.293c-1.045,1.729-0.627,3.994,0.859,4.848   C67.197,54.407,69.109,53.577,70.048,51.903z"/><path d="M37.692,61.376c-5.117-8.75-9.109-18.18-12.149-27.856c-0.165-0.533-0.692-0.846-1.181-0.697   c-0.486,0.148-0.746,0.707-0.58,1.248c3.127,9.947,7.248,19.649,12.563,28.653L37.692,61.376z"/><path d="M81.755,100.704c-14.101-5.428-26.39-15.055-35.673-26.957c-1.008-1.281-1.98-2.588-2.926-3.912l-1.32,1.32   c0.904,1.264,1.837,2.508,2.798,3.732c9.452,12.119,22.029,21.982,36.453,27.533c0.528,0.209,1.103-0.01,1.28-0.484   C82.545,101.458,82.271,100.907,81.755,100.704z"/><path d="M46.436,48.477c0,0-5.657,7.418-6.323,10.481l7.032-7.034C46.761,49.963,46.436,48.477,46.436,48.477z"/><path d="M28.618,70.452l6.121-6.123c-0.49-0.41-1.049-0.766-1.661-1.037c-2.622-1.037-13.017-1.525-13.017-1.525   S25.099,67.577,28.618,70.452z"/><path d="M41.878,76.411c-0.98-0.232-2.939-0.279-5.053-0.246l-3.92,3.922c2.859,2.303,6.425,4.938,8.113,5.234   c2.942,0.75,5.357-0.846,5.501-3.26C46.682,79.624,44.667,77.21,41.878,76.411z"/><path d="M66.061,15.792c-0.343-0.133-0.754,0.067-0.894,0.459c-2.662,7.042-4.163,14.53-4.409,22.06l1.403-1.402   c0.335-6.885,1.726-13.712,4.262-20.186C66.559,16.339,66.408,15.927,66.061,15.792z"/><path d="M61.613,51.377c1.713,10.504,5.66,20.633,11.677,29.454c0.243,0.342,0.694,0.439,0.985,0.213   c0.293-0.227,0.34-0.662,0.106-0.988c-6.065-8.877-10.037-19.209-11.578-29.868L61.613,51.377z"/><path d="M51.71,47.358l1.519-1.518c-1.388-0.754-2.463-1.305-2.463-1.305S51.145,45.754,51.71,47.358z"/><path d="M59.87,54.737c0.417-0.617,0.591-1.377,0.548-2.165l-3.248,3.249C58.234,56.022,59.256,55.64,59.87,54.737z"/><path d="M55.357,43.711l3.943-3.943c-0.125-0.67-0.387-1.34-0.79-1.947c-1.228-1.648-7.353-6.221-7.353-6.221   s1.24,9.119,2.714,10.84C54.302,43.036,54.818,43.456,55.357,43.711z"/><path d="M66.021,33.047l8.188-8.188c-0.948,0.165-7.139,1.284-8.549,2.593c-1.545,1.293-1.903,3.568-0.76,4.855   C65.211,32.665,65.597,32.907,66.021,33.047z"/><path d="M63.82,9.713c-0.779-0.201-1.567-0.379-2.361-0.539c0.748,1.132,1.547,2.391,2.161,3.484   C63.428,11.717,63.5,10.699,63.82,9.713z"/><path d="M67.689,16.046c0.002,0.009,0.002,0.017,0.004,0.023c0.014-0.008,0.026-0.016,0.039-0.025   C67.718,16.044,67.704,16.046,67.689,16.046z"/><path d="M20.215,31.704c-1.522-0.91-2.751-2.557-3.265-4.566c-0.063-0.215-0.168-0.59-0.221-1.313   c-1.104,1.424-2.125,2.914-3.057,4.467c2.088,0.631,4.402,1.395,6.077,2.115C19.901,32.17,20.058,31.936,20.215,31.704z"/><path d="M78.871,16.763l-0.07,0.086c-0.313,0.384-2.283,2.796-4.037,4.696c0.881,0.617,1.738,1.271,2.572,1.963l-54.858,54.86   c-5.789-6.973-8.939-15.662-8.939-24.836c0-1.387,0.074-2.762,0.216-4.124c-0.952-1.309-1.59-2.234-1.632-2.297l-1.93-2.803   l3.363,0.523c0.152,0.023,0.473,0.074,0.918,0.146c0.151-0.676,0.32-1.348,0.508-2.014c-0.879-0.824-2.248-2.484-4.539-6.146   c-2.057,5.17-3.188,10.809-3.188,16.713c0,24.988,20.257,45.244,45.246,45.244c4.826,0,9.475-0.758,13.837-2.158   c-2.123-1.342-4.202-2.787-6.229-4.334c-0.186-0.141-0.365-0.285-0.549-0.428c-2.306,0.42-4.664,0.637-7.059,0.637   c-9.176,0-17.865-3.152-24.837-8.939l54.858-54.86c5.789,6.973,8.94,15.662,8.94,24.838c0,10.406-4.054,20.189-11.412,27.549   c-4.188,4.189-9.166,7.307-14.595,9.215c2.098,1.48,4.254,2.854,6.461,4.113c15.271-7.268,25.83-22.84,25.83-40.877   C97.746,38.383,90.3,24.975,78.871,16.763z"/><path d="M52.5,14.569c1.061,0,2.111,0.044,3.156,0.127c0.05-0.865,0.146-1.92,0.311-3.217c0.143-1.123,0.303-2.185,0.438-3.025   c-1.287-0.11-2.59-0.169-3.904-0.169c-10.542,0-20.242,3.605-27.935,9.65c1.213,2.073,2.41,4.245,2.992,5.663   C34.546,17.753,43.277,14.569,52.5,14.569z"/><path d="M70.281,15.126c1.625-0.336,3.604-0.505,5.174-0.589c-1.055-0.622-2.135-1.204-3.242-1.742   C71.745,13.762,71.07,14.561,70.281,15.126z"/></g></svg>
