
<svg xmlns="http://www.w3.org/2000/svg" xmlns:xlink="http://www.w3.org/1999/xlink" version="1.1" x="0px" y="0px" viewBox="0 0 100 125" enable-background="new 0 0 100 100" xml:space="preserve"><path d="M64.524,11.75c-1.522-0.859-3.455-0.32-4.313,1.204l-3.605,6.396l0.021-7.443c0.005-1.749-1.409-3.171-3.159-3.175  c-1.729-0.012-3.17,1.409-3.176,3.158l-0.021,7.441l-3.568-6.415c-0.851-1.528-2.777-2.078-4.308-1.228  c-1.528,0.851-2.078,2.778-1.228,4.308l9.221,16.575c-1.648,0.702-2.924,2.114-3.396,4.413c-0.516,2.528-0.957,5.073-1.365,7.62  c-0.212,1.328,0.382,2.253,1.635,2.854c1.701,0.819,3.478,1.36,5.37,1.502c0.602,0.045,1.196,0.164,1.796,0.247  c-2.997,0.475-5.883,0.03-8.81-0.991c-0.021,0.38-0.051,0.614-0.042,0.848c0.156,4.771,0.247,9.543,0.498,14.309  c0.18,3.348,0.267,3.375,3.502,4.409c1.251,0.4,2.56,0.616,3.843,0.917c-1.111,0.133-2.235,0.216-3.344,0.104  c-1.141-0.112-2.262-0.415-3.492-0.651c0.034,0.713,0.028,1.341,0.093,1.96c0.479,4.699,1.336,9.337,2.484,13.916  c0.495,1.981,0.759,4.04,1.84,5.852c1.394,2.334,3.188,2.4,4.408-0.029c0.834-1.652,1.469-3.445,1.911-5.245  c2.32-9.433,3.19-19.064,3.708-28.736c0.021-0.427-0.078-0.861-0.119-1.297c-1.879,0.304-3.64,0.485-5.461-0.116  c1.567-0.311,3.04-0.586,4.507-0.897c0.683-0.146,1.113-0.555,1.131-1.315c0.141-5.154,0.003-10.282-1.345-15.307  c-0.589-2.194-1.627-3.592-3.348-4.318l9.332-16.552C66.587,14.541,66.048,12.609,64.524,11.75z"/></svg>
